<?xml version="1.0" encoding="UTF-8" standalone="no"?>
<svg
   xmlns:dc="http://purl.org/dc/elements/1.1/"
   xmlns:cc="http://creativecommons.org/ns#"
   xmlns:rdf="http://www.w3.org/1999/02/22-rdf-syntax-ns#"
   xmlns:svg="http://www.w3.org/2000/svg"
   xmlns="http://www.w3.org/2000/svg"
   xmlns:sodipodi="http://sodipodi.sourceforge.net/DTD/sodipodi-0.dtd"
   xmlns:inkscape="http://www.inkscape.org/namespaces/inkscape"
   width="256"
   height="149"
   viewBox="0 0 256 149"
   fill="none"
   version="1.1"
   id="svg8"
   sodipodi:docname="logo.svg"
   inkscape:version="1.0.2-2 (e86c870879, 2021-01-15)">
  <metadata
     id="metadata14">
    <rdf:RDF>
      <cc:Work
         rdf:about="">
        <dc:format>image/svg+xml</dc:format>
        <dc:type
           rdf:resource="http://purl.org/dc/dcmitype/StillImage" />
        <dc:title />
      </cc:Work>
    </rdf:RDF>
  </metadata>
  <defs
     id="defs12" />
  <sodipodi:namedview
     pagecolor="#ffffff"
     bordercolor="#666666"
     borderopacity="1"
     objecttolerance="10"
     gridtolerance="10"
     guidetolerance="10"
     inkscape:pageopacity="0"
     inkscape:pageshadow="2"
     inkscape:window-width="1920"
     inkscape:window-height="1017"
     id="namedview10"
     showgrid="false"
     inkscape:zoom="3.6107383"
     inkscape:cx="128"
     inkscape:cy="74.5"
     inkscape:window-x="-8"
     inkscape:window-y="-8"
     inkscape:window-maximized="1"
     inkscape:current-layer="svg8"
     inkscape:document-rotation="0" />
  <path
     d="M0 0H256V99C256 112.261 250.732 124.979 241.355 134.355C231.979 143.732 219.261 149 206 149H50C36.7392 149 24.0215 143.732 14.6447 134.355C5.26784 124.979 0 112.261 0 99L0 0Z"
     fill="#E0B973"
     id="path2" />
  <path
     d="m 83.887,93.245 c 0.63,0 0.63,0.015 0.63,0.435 v 2.16 c 0,1.395 -0.075,1.545 -0.765,1.635 l -0.33,0.045 c -0.12,0.09 -0.12,0.435 0,0.525 0.72,-0.03 1.455,-0.045 2.205,-0.045 0.69,0 1.425,0.015 2.175,0.045 0.12,-0.09 0.12,-0.435 0,-0.525 l -0.36,-0.06 c -0.69,-0.12 -0.78,-0.225 -0.78,-1.62 v -5.58 c 0,-1.395 0.09,-1.53 0.78,-1.635 l 0.3,-0.045 c 0.12,-0.09 0.12,-0.435 0,-0.525 -0.69,0.03 -1.38,0.045 -2.115,0.045 -0.72,0 -1.455,-0.015 -2.28,-0.045 -0.12,0.09 -0.12,0.435 0,0.525 l 0.405,0.06 c 0.69,0.105 0.765,0.225 0.765,1.62 V 92 c 0,0.435 0,0.45 -0.63,0.45 h -3.12 c -0.615,0 -0.63,-0.015 -0.63,-0.45 v -1.74 c 0,-1.395 0.09,-1.545 0.735,-1.635 l 0.315,-0.045 c 0.12,-0.09 0.12,-0.435 0,-0.525 -0.66,0.03 -1.41,0.045 -2.085,0.045 -0.72,0 -1.5,-0.015 -2.235,-0.045 -0.12,0.09 -0.12,0.435 0,0.525 l 0.36,0.045 c 0.69,0.09 0.765,0.24 0.765,1.635 v 5.58 c 0,1.395 -0.075,1.545 -0.765,1.635 l -0.36,0.045 c -0.12,0.09 -0.12,0.435 0,0.525 0.765,-0.03 1.515,-0.045 2.235,-0.045 0.675,0 1.425,0.015 2.28,0.045 0.12,-0.09 0.12,-0.435 0,-0.525 l -0.48,-0.06 c -0.675,-0.09 -0.765,-0.225 -0.765,-1.62 v -2.16 c 0,-0.42 0.015,-0.435 0.63,-0.435 z m 19.435,-5.385 c -3.135,0 -5.355,2.295 -5.355,5.265 0,3.135 2.19,5.115 5.205,5.115 3.225,0 5.415,-1.965 5.415,-5.235 0,-3.045 -2.145,-5.145 -5.265,-5.145 z m 2.865,5.34 c 0,2.43 -0.765,4.35 -2.73,4.35 -2.445,0 -3.09,-2.94 -3.09,-4.77 0,-2.505 0.99,-4.23 2.835,-4.23 1.86,0 2.985,2.085 2.985,4.65 z m 15.372,2.64 c 0,1.395 -0.09,1.53 -0.765,1.605 l -0.675,0.075 c -0.12,0.09 -0.12,0.435 0,0.525 1.05,-0.03 1.83,-0.045 2.55,-0.045 0.675,0 1.425,0.015 2.4,0.045 0.105,-0.09 0.105,-0.435 0,-0.525 l -0.6,-0.075 c -0.675,-0.09 -0.765,-0.21 -0.765,-1.605 v -6.615 c 0,-0.39 0.045,-0.435 0.405,-0.435 h 0.9 c 1.125,0 1.335,0.705 1.59,1.665 0.075,0.12 0.48,0.09 0.555,-0.045 -0.03,-0.855 0.075,-2.07 0.225,-2.58 -0.03,-0.045 -0.135,-0.105 -0.225,-0.105 -0.09,0 -0.135,0.015 -0.195,0.045 -0.135,0.315 -0.36,0.33 -1.35,0.33 h -5.58 c -1.14,0 -1.185,-0.06 -1.26,-0.315 -0.06,-0.045 -0.135,-0.06 -0.21,-0.06 -0.075,0 -0.15,0.03 -0.21,0.075 -0.105,0.585 -0.18,1.515 -0.495,2.55 0.09,0.195 0.375,0.225 0.555,0.135 0.45,-1.095 0.765,-1.695 1.86,-1.695 h 0.93 c 0.36,0 0.36,0.075 0.36,0.435 z m 18.698,-6.465 c 0,-0.555 0,-0.585 0.495,-0.585 h 1.2 c 0.735,0 1.185,0.18 1.47,0.465 0.195,0.21 0.405,0.66 0.57,1.185 0.15,0.135 0.495,0.105 0.555,-0.06 -0.075,-1.005 -0.18,-2.085 -0.195,-2.325 -0.195,0.03 -1.05,0.045 -2.01,0.045 h -3.18 c -0.72,0 -1.455,-0.015 -2.16,-0.045 -0.15,0.09 -0.165,0.435 -0.03,0.525 l 0.375,0.075 c 0.675,0.135 0.765,0.225 0.765,1.59 v 5.595 c 0,1.38 -0.09,1.47 -0.765,1.575 l -0.705,0.105 c -0.12,0.075 -0.12,0.435 0,0.525 1.125,-0.03 1.86,-0.045 2.58,-0.045 h 1.95 c 1.23,0 2.67,0.015 3.465,0.045 0.21,-0.405 0.57,-1.62 0.63,-2.4 -0.06,-0.18 -0.435,-0.24 -0.555,-0.075 -0.825,1.695 -1.335,1.74 -2.64,1.74 -1.095,0 -1.38,-0.12 -1.575,-0.39 -0.18,-0.255 -0.24,-0.735 -0.24,-1.425 V 93.71 c 0,-0.45 0.015,-0.465 0.42,-0.465 h 1.035 c 0.78,0 0.96,0.12 1.11,0.84 l 0.075,0.375 c 0.105,0.135 0.48,0.12 0.555,-0.015 -0.03,-0.48 -0.045,-1.02 -0.045,-1.59 0,-0.57 0.015,-1.11 0.045,-1.59 -0.075,-0.135 -0.45,-0.135 -0.555,-0.015 l -0.075,0.375 c -0.15,0.72 -0.33,0.825 -1.11,0.825 h -1.035 c -0.405,0 -0.42,-0.03 -0.42,-0.45 z m 17.892,0.885 c 0,-1.395 0.09,-1.515 0.765,-1.62 l 0.39,-0.06 c 0.12,-0.09 0.12,-0.435 0,-0.525 -0.75,0.03 -1.5,0.045 -2.22,0.045 -0.72,0 -1.47,-0.015 -2.25,-0.045 -0.18,0.09 -0.18,0.435 -0.03,0.525 l 0.435,0.06 c 0.675,0.09 0.765,0.225 0.765,1.62 v 5.58 c 0,1.395 -0.09,1.515 -0.765,1.605 l -0.57,0.075 c -0.12,0.09 -0.09,0.435 0.045,0.525 0.93,-0.03 1.68,-0.045 2.37,-0.045 h 2.01 c 1.23,0 2.67,0.015 3.465,0.045 0.21,-0.405 0.57,-1.65 0.645,-2.43 -0.105,-0.18 -0.45,-0.24 -0.57,-0.09 -0.885,1.74 -1.305,1.785 -2.67,1.785 -1.095,0 -1.365,-0.12 -1.56,-0.375 -0.195,-0.24 -0.255,-0.72 -0.255,-1.425 z m 21.074,4.935 c 0,-1.65 -1.185,-2.52 -2.115,-3.015 l -0.99,-0.525 c -0.75,-0.39 -1.365,-1.02 -1.365,-1.71 0,-0.75 0.54,-1.395 1.53,-1.395 1.08,0 1.725,1.095 1.98,1.86 0.135,0.15 0.51,0.135 0.585,-0.045 0,-1.005 -0.15,-1.815 -0.27,-2.145 -0.18,-0.03 -0.315,-0.06 -0.51,-0.12 -0.6,-0.18 -1.215,-0.24 -1.71,-0.24 -2.175,0 -3.495,1.17 -3.48,2.865 0,1.485 1.185,2.385 2.265,2.925 0.9,0.45 2.04,1.17 2.04,2.385 0,0.75 -0.51,1.515 -1.62,1.515 -1.275,0 -2.28,-1.38 -2.58,-2.355 -0.12,-0.165 -0.465,-0.15 -0.57,0.045 0,1.02 0.195,2.1 0.48,2.43 0.315,0.18 1.17,0.57 2.55,0.57 2.265,0 3.78,-1.2 3.78,-3.045 z"
     fill="#14274a"
     id="path4" />
  <path
     d="m 43.802224,56.36 c 0,-3.72 0.24,-4.04 2.04,-4.32 l 1.04,-0.16 c 0.32,-0.24 0.32,-1.16 0,-1.4 -2,0.08 -4,0.12 -5.92,0.12 -1.92,0 -3.92,-0.04 -6,-0.12 -0.48,0.24 -0.48,1.16 -0.08,1.4 l 1.16,0.16 c 1.8,0.24 2.04,0.6 2.04,4.32 v 14.88 c 0,3.72 -0.24,4.04 -2.04,4.28 l -1.52,0.2 c -0.32,0.24 -0.24,1.16 0.12,1.4 2.48,-0.08 4.48,-0.12 6.32,-0.12 h 5.36 c 3.28,0 7.12,0.04 9.24,0.12 0.56,-1.08 1.52,-4.4 1.72,-6.48 -0.28,-0.48 -1.2,-0.64 -1.52,-0.24 -2.36,4.64 -3.48,4.76 -7.12,4.76 -2.92,0 -3.64,-0.32 -4.16,-1 -0.52,-0.64 -0.68,-1.92 -0.68,-3.8 z m 22.0331,10 c 0,4.36 0.88,7.32 2.96,9.04 2.16,1.76 4.88,2.24 7.92,2.24 3.24,0 6.16,-1 7.92,-2.88 2.2,-2.44 2.56,-5.88 2.56,-9.64 v -4.48 c 0,-3.24 0.16,-6.28 0.6,-7.32 0.36,-0.84 1.12,-1.08 2.16,-1.32 l 0.72,-0.16 c 0.32,-0.32 0.24,-1.12 0,-1.36 -1.52,0.08 -3,0.12 -4.48,0.12 -1.64,0 -3.2,-0.04 -5.36,-0.12 -0.24,0.24 -0.32,1.04 0,1.36 l 1.08,0.2 c 1.08,0.2 1.96,0.44 2.32,1.28 0.44,1.04 0.6,4.08 0.6,7.32 v 4.84 c 0,5.48 -1.56,9.96 -6.68,9.96 -6.08,0 -6.6,-5.16 -6.6,-9.84 v -9.24 c 0,-3.72 0.24,-4.04 2.04,-4.36 l 0.96,-0.16 c 0.32,-0.24 0.32,-1.12 0,-1.36 -1.92,0.08 -3.88,0.12 -5.84,0.12 -1.92,0 -3.92,-0.04 -5.84,-0.12 -0.44,0.24 -0.4,1.12 -0.08,1.36 l 1,0.2 c 1.8,0.36 2.04,0.6 2.04,4.32 z m 30.7689,9.44 c -0.36,0.24 -0.24,1.12 0.16,1.32 1.201,-0.08 2.881,-0.12 4.200996,-0.12 1.68,0 3.48,0.04 5.24,0.12 0.44,-0.16 0.48,-1.12 0.12,-1.4 l -1.04,-0.12 c -0.84,-0.08 -1.28,-0.28 -1.28,-0.52 0,-0.24 0.08,-0.52 0.36,-1.08 1.32,-2.52 3.2,-5.56 4.76,-7.84 0.6,0.76 3.64,5.44 4.24,6.52 1,1.68 1.16,2.04 1.16,2.36 0,0.24 -0.48,0.44 -1.48,0.56 l -1.08,0.12 c -0.4,0.2 -0.24,1.24 0.12,1.4 2.16,-0.08 3.96,-0.12 6.72,-0.12 3.24,0 4.48,0.04 6.24,0.12 0.4,-0.28 0.4,-1.12 0.12,-1.4 l -1.24,-0.16 c -1.52,-0.2 -2.52,-0.76 -3.92,-2.88 -1.44,-2.16 -3.4,-5.16 -6.4,-9.8 -0.4,-0.6 -0.56,-1.04 -0.56,-1.24 0,-0.2 0.4,-0.8 0.8,-1.36 1.88,-2.56 3.64,-5.2 5.56,-7.16 0.72,-0.72 1.44,-0.88 2.28,-1 l 1.68,-0.24 c 0.28,-0.36 0.24,-1.2 -0.16,-1.4 -1.28,0.08 -2.92,0.12 -4.84,0.12 -1.88,0 -3.16,-0.04 -4.4,-0.12 -0.44,0.2 -0.44,1.12 -0.12,1.4 l 1.6,0.28 c 0.52,0.08 0.8,0.28 0.8,0.4 0,0.2 0,0.48 -0.44,1.2 -1.24,2.12 -2.56,4.08 -4.04,6.32 -1.24,-1.8 -2.68,-4 -3.76,-5.88 -0.48,-0.84 -0.641,-1.2 -0.641,-1.56 0,-0.28 0.721,-0.48 1.361,-0.6 l 0.88,-0.16 c 0.28,-0.32 0.28,-1.2 -0.16,-1.4 -1.24,0.08 -2.84,0.12 -6.08,0.12 -2.44,0 -4.960996,-0.04 -6.239996,-0.12 -0.401,0.24 -0.401,1.08 -0.041,1.4 l 0.681,0.12 c 1.8,0.32 2.639996,0.84 3.559996,2.16 1.88,2.68 4.4,6.64 5.72,8.6 0.52,0.72 0.72,1.24 0.72,1.4 0,0.24 -0.2,0.72 -0.56,1.24 -1.72,2.56 -3.88,5.68 -5.04,7.2 -1.32,1.8 -2.239996,2.76 -4.639996,3.08 z m 37.441996,-9.44 c 0,4.36 0.88,7.32 2.96,9.04 2.16,1.76 4.88,2.24 7.92,2.24 3.24,0 6.16,-1 7.92,-2.88 2.2,-2.44 2.56,-5.88 2.56,-9.64 v -4.48 c 0,-3.24 0.16,-6.28 0.6,-7.32 0.36,-0.84 1.12,-1.08 2.16,-1.32 l 0.72,-0.16 c 0.32,-0.32 0.24,-1.12 0,-1.36 -1.52,0.08 -3,0.12 -4.48,0.12 -1.64,0 -3.2,-0.04 -5.36,-0.12 -0.24,0.24 -0.32,1.04 0,1.36 l 1.08,0.2 c 1.08,0.2 1.96,0.44 2.32,1.28 0.44,1.04 0.6,4.08 0.6,7.32 v 4.84 c 0,5.48 -1.56,9.96 -6.68,9.96 -6.08,0 -6.6,-5.16 -6.6,-9.84 v -9.24 c 0,-3.72 0.24,-4.04 2.04,-4.36 l 0.96,-0.16 c 0.32,-0.24 0.32,-1.12 0,-1.36 -1.92,0.08 -3.88,0.12 -5.84,0.12 -1.92,0 -3.92,-0.04 -5.84,-0.12 -0.44,0.24 -0.4,1.12 -0.08,1.36 l 1,0.2 c 1.8,0.36 2.04,0.6 2.04,4.32 z m 35.809,4.88 c 0,3.68 -0.24,3.96 -2.04,4.28 l -1.08,0.2 c -0.32,0.2 -0.32,1.16 0,1.4 2.08,-0.08 3.84,-0.12 5.84,-0.12 1.92,0 3.76,0.04 5.88,0.12 0.28,-0.24 0.28,-1.2 0,-1.4 l -1.08,-0.2 c -1.8,-0.32 -2.04,-0.6 -2.04,-4.28 v -4.92 c 0,-0.8 0.08,-0.88 1.48,-0.88 1,0 1.64,0.32 2.12,1.4 0.92,2.12 1.84,4.08 3.12,6.2 1.76,2.88 4.08,4.2 7.76,4.2 1.24,0 2.52,-0.08 3.16,-0.36 0.2,-0.24 0.2,-0.84 -0.16,-1.04 -0.6,-0.04 -1.64,-0.28 -2.68,-1.12 -1.92,-1.64 -3.56,-4.64 -6.2,-10 -0.2,-0.44 -0.2,-0.68 0.2,-0.88 1.84,-0.92 4.24,-2.44 4.24,-6 0,-2.56 -1.2,-4.56 -3.52,-5.92 -1.52,-0.92 -4.44,-1.44 -7.84,-1.44 -3.8,0 -6.92,0.16 -9.92,0.36 -0.48,0.2 -0.48,1.2 -0.08,1.4 l 1.08,0.16 c 1.68,0.24 1.76,0.68 1.76,4.68 z m 5.48,-16.88 c 0,-1.92 0.08,-2.04 1.72,-2.04 3.12,0 5.24,2.32 5.24,5.92 0,2.36 -0.76,3.64 -1.44,4.32 -0.76,0.76 -1.6,1.12 -3.04,1.12 -2.36,0 -2.48,-0.12 -2.48,-1.52 z m 35.68,14.08 c 0,-2.28 0.28,-3.28 1.32,-5.16 l 2.52,-4.56 c 1.92,-3.48 2.88,-4.92 3.48,-5.68 0.44,-0.56 1.36,-0.84 2.08,-0.96 l 1.04,-0.2 c 0.32,-0.28 0.32,-1.24 -0.16,-1.4 -1.16,0.08 -2.4,0.12 -3.92,0.12 -1.44,0 -2.88,-0.04 -4.48,-0.12 -0.4,0.2 -0.36,1.2 -0.04,1.4 l 0.76,0.16 c 0.96,0.16 1.6,0.4 1.6,0.64 0,0.48 -0.48,1.68 -1.92,4.52 -1.04,2.04 -2.28,4.64 -3.44,6.6 -0.48,-1 -1.4,-2.84 -2,-4.16 l -1.88,-4.28 c -0.84,-1.88 -1.04,-2.48 -1.04,-2.8 0,-0.04 0.24,-0.2 0.96,-0.36 l 1.36,-0.32 c 0.36,-0.32 0.28,-1.24 -0.08,-1.4 -1.36,0.08 -3.4,0.12 -5.841,0.12 -2.36,0 -3.839,-0.04 -5.64,-0.12 -0.48,0.12 -0.52,1.08 -0.16,1.4 l 1.361,0.24 c 1.4,0.24 1.76,0.88 2.56,2.52 l 4.76,9.84 c 1.04,2.12 1.08,2.76 1.08,4.76 v 2 c 0,3.72 -0.24,4 -2.04,4.28 l -1.36,0.2 c -0.32,0.24 -0.32,1.16 0,1.4 2.36,-0.08 4.36,-0.12 6.28,-0.12 1.92,0 3.88,0.04 6.48,0.12 0.28,-0.24 0.28,-1.16 0,-1.4 l -1.6,-0.2 c -1.8,-0.24 -2.04,-0.56 -2.04,-4.28 z"
     fill="#14274a"
     id="path6" />
</svg>
