<?xml version="1.0" encoding="UTF-8" standalone="no"?>
<svg
   xmlns:dc="http://purl.org/dc/elements/1.1/"
   xmlns:cc="http://creativecommons.org/ns#"
   xmlns:rdf="http://www.w3.org/1999/02/22-rdf-syntax-ns#"
   xmlns:svg="http://www.w3.org/2000/svg"
   xmlns="http://www.w3.org/2000/svg"
   xmlns:sodipodi="http://sodipodi.sourceforge.net/DTD/sodipodi-0.dtd"
   xmlns:inkscape="http://www.inkscape.org/namespaces/inkscape"
   width="256"
   height="256"
   viewBox="0 0 100 100"
   version="1.1"
   id="svg6"
   sodipodi:docname="favicon.svg"
   inkscape:version="1.0.1 (3bc2e813f5, 2020-09-07)">
  <metadata
     id="metadata12">
    <rdf:RDF>
      <cc:Work
         rdf:about="">
        <dc:format>image/svg+xml</dc:format>
        <dc:type
           rdf:resource="http://purl.org/dc/dcmitype/StillImage" />
        <dc:title></dc:title>
      </cc:Work>
    </rdf:RDF>
  </metadata>
  <defs
     id="defs10" />
  <sodipodi:namedview
     pagecolor="#ffffff"
     bordercolor="#666666"
     borderopacity="1"
     objecttolerance="10"
     gridtolerance="10"
     guidetolerance="10"
     inkscape:pageopacity="0"
     inkscape:pageshadow="2"
     inkscape:window-width="1366"
     inkscape:window-height="705"
     id="namedview8"
     showgrid="false"
     inkscape:zoom="1.0507813"
     inkscape:cx="5.6625549"
     inkscape:cy="145.61673"
     inkscape:window-x="-8"
     inkscape:window-y="-8"
     inkscape:window-maximized="1"
     inkscape:current-layer="svg6" />
  <rect
     width="100"
     height="100"
     rx="20"
     fill="#e0b973"
     id="rect2" />
  <g
     aria-label="L"
     id="text839"
     style="font-weight:bold;font-size:85.9375px;line-height:1.25;font-family:'Adobe Garamond Pro';-inkscape-font-specification:'Adobe Garamond Pro Bold';fill:#14274a;fill-opacity:1;stroke-width:0.390625">
    <path
       d="m 45.703629,34.015625 c 0,-7.992188 0.515625,-8.679688 4.382812,-9.28125 l 2.234375,-0.34375 c 0.6875,-0.515625 0.6875,-2.492188 0,-3.007813 -4.296875,0.171875 -8.59375,0.257813 -12.71875,0.257813 -4.125,0 -8.421875,-0.08594 -12.890625,-0.257813 -1.03125,0.515625 -1.03125,2.492188 -0.171875,3.007813 l 2.492188,0.34375 c 3.867187,0.515625 4.382812,1.289062 4.382812,9.28125 v 31.96875 c 0,7.992187 -0.515625,8.679687 -4.382812,9.195312 l -3.265625,0.429688 c -0.6875,0.515625 -0.515625,2.492187 0.257812,3.007812 5.328125,-0.171875 9.625,-0.257812 13.578125,-0.257812 h 11.515625 c 7.046875,0 15.296875,0.08594 19.851563,0.257812 1.203125,-2.320312 3.265625,-9.453125 3.695312,-13.921875 -0.601562,-1.03125 -2.578125,-1.375 -3.265625,-0.515625 -5.070312,9.96875 -7.476562,10.226563 -15.296875,10.226563 -6.273437,0 -7.820312,-0.6875 -8.9375,-2.148438 -1.117187,-1.375 -1.460937,-4.125 -1.460937,-8.164062 z"
       style="font-size:85.9375px;fill:#14274a;fill-opacity:1;stroke-width:0.390625"
       id="path841" />
  </g>
</svg>
