<!-- Generated by IcoMoon.io -->
<svg version="1.1" xmlns="http://www.w3.org/2000/svg" width="1024" height="1024" viewBox="0 0 1024 1024">
<title></title>
<g id="icomoon-ignore">
</g>
<path fill="#000" d="M1012.268 483.686c-0.012-0.012-0.022-0.026-0.036-0.038l-209.008-208c-15.658-15.582-40.984-15.524-56.57 0.136-15.584 15.658-15.524 40.984 0.134 56.568l140.328 139.648h-847.116c-22.092 0-40 17.908-40 40s17.908 40 40 40h847.114l-140.324 139.648c-15.658 15.584-15.718 40.91-0.134 56.568 15.586 15.662 40.914 15.716 56.57 0.136l209.008-208c0.012-0.012 0.022-0.026 0.036-0.038 15.666-15.636 15.616-41.044-0.002-56.628z"></path>
</svg>
