<!-- Generated by IcoMoon.io -->
<svg version="1.1" xmlns="http://www.w3.org/2000/svg" width="1195" height="1024" viewBox="0 0 1195 1024">
<title></title>
<g id="icomoon-ignore">
</g>
<path d="M1145.041 14.229c27.499 0 49.792 22.293 49.792 49.792v0 896c-0.024 27.481-22.308 49.749-49.792 49.749h-1095.083c-27.484 0-49.768-22.268-49.792-49.747v-896.002c0-27.499 22.293-49.792 49.792-49.792v0h199.083v149.333h99.584v-149.333h199.083v149.333h99.584v-149.333h199.083v149.333h99.584v-149.333zM974.886 571.029l-348.459-248.875c-8.059-5.712-18.094-9.131-28.928-9.131s-20.869 3.419-29.085 9.237l0.157-0.106-348.459 248.917 57.856 80.981 70.656-50.432v209.067c0.024 27.466 22.283 49.725 49.747 49.749h124.461v-199.083c0-27.499 22.293-49.792 49.792-49.792h49.749c27.499 0 49.792 22.293 49.792 49.792v0 199.083h124.459c27.466-0.024 49.725-22.283 49.749-49.747v-209.069l70.656 50.432z"></path>
</svg>
