<svg id="Capa_1" enable-background="new 0 0 512.496 512.496" height="512" viewBox="0 0 512.496 512.496" width="512" xmlns="http://www.w3.org/2000/svg"><path d="m230.684 297.876h-31.436c-4.142 0-7.5 3.357-7.5 7.5s3.358 7.5 7.5 7.5h31.436c.687 0 1.245.559 1.245 1.244v99.835c0 .687-.559 1.245-1.245 1.245h-79.525c-.687 0-1.245-.559-1.245-1.245v-99.835c0-.686.559-1.244 1.245-1.244h13.09c4.142 0 7.5-3.357 7.5-7.5s-3.358-7.5-7.5-7.5h-13.09c-8.958 0-16.245 7.287-16.245 16.244v99.835c0 8.958 7.288 16.245 16.245 16.245h79.525c8.958 0 16.245-7.287 16.245-16.245v-99.835c0-8.957-7.288-16.244-16.245-16.244z"/><path d="m461.945 469.566h-94.405c-.473-.81-12.767-12.651-12.767-12.651-1.939-1.836-3.048-4.421-3.043-7.099l.037-38.274c.004-4.142-3.351-7.503-7.5-7.507-4.139 0-7.496 3.354-7.5 7.493l-.037 38.269c-.012 6.782 2.805 13.346 7.729 18.009l1.859 1.761h-33.063l1.859-1.761c4.923-4.663 7.74-11.227 7.729-18.003l-.083-85.779c2.328.32 4.677.49 7.027.49 2.349 0 4.696-.17 7.024-.489l-.014 12.715c-.005 4.143 3.35 7.504 7.5 7.509 4.138 0 7.495-3.353 7.5-7.491l.019-16.786 11.783-3.887c9.416-3.106 17.514-8.788 23.551-16.178 5.432-6.647 9.197-14.674 10.745-23.458l7.181-40.768c.005-.03.005-.06.01-.09l3.652-20.737c.599-3.4-.331-6.867-2.55-9.512-2.22-2.645-5.473-4.161-8.925-4.161h-119.05c-.439-13.344-4.012-26.276-10.491-37.942-.004-.007-20.782-37.422-20.782-37.422-5.659-10.19-8.65-21.738-8.65-33.395v-41.04c.013-.001.027-.002.041-.003v-75.335c0-1.659-.253-3.26-.723-4.766-2.035-6.527-8.134-11.278-15.322-11.278h-62.689c-8.847 0-16.044 7.197-16.044 16.044v95.371c0 4.143 3.358 7.5 7.5 7.5s7.5-3.357 7.5-7.5v-12.72h64.737v33.727c0 14.198 3.644 28.265 10.537 40.678l6.227 11.213-20.94 7.18c-7.576-6.534-17.427-10.498-28.193-10.498-10.763 0-20.611 3.962-28.187 10.493l-20.943-7.181 6.224-11.208c4.442-7.999 7.528-16.619 9.172-25.619.744-4.074-1.955-7.981-6.03-8.726-4.075-.742-7.982 1.954-8.726 6.03-1.35 7.389-3.884 14.465-7.53 21.032l-10.514 18.932c-.021.036-.045.069-.065.106-10.572 19.009-20.74 36.774-20.74 59.061v225.651h-53.031c-7.743 0-14.042 6.299-14.042 14.042v14.846c0 7.743 6.299 14.042 14.042 14.042h411.395c7.743 0 14.042-6.299 14.042-14.042v-14.846c-.001-7.743-6.3-14.042-14.043-14.042zm-238.615-385.871h-64.778v-26.396h64.778zm0-41.396h-64.778v-26.255c0-.575.468-1.044 1.044-1.044h62.689c.576 0 1.044.469 1.044 1.044v26.255zm159.787 271.547c-1.088 6.176-3.74 11.812-7.548 16.494-4.27 5.249-9.996 9.296-16.674 11.499l-17.811 5.873c-7.285 2.408-15.31 2.408-22.602-.002 0 0-15.367-5.064-15.367-5.065-6.458-2.128-11.914-4.757-16.795-9.693-5.065-5.122-8.568-11.739-9.865-19.107l-5.18-29.412c4.064 1.317 7.736 2.841 11.524 4.414 11.523 4.783 23.438 9.729 46.981 9.729 23.55 0 35.467-4.946 46.992-9.73 3.788-1.573 7.46-3.096 11.523-4.412zm-75.274 135.976c.004 2.671-1.105 5.257-3.044 7.093 0 0-12.293 11.842-12.766 12.651h-13.774v-123.611c2.419 2.125 5.048 4.024 7.857 5.671.111.065.219.134.331.198.065.037.131.072.196.109 6.335 3.61 13.875 5.901 21.112 8.127zm85.428-193.641-2.093 11.886c-7.972 1.874-14.151 4.434-20.155 6.926-10.635 4.414-20.68 8.584-41.241 8.584-20.554 0-30.597-4.169-41.23-8.583-6.004-2.493-12.184-5.054-20.158-6.928l-2.093-11.886h126.97zm-145.823-58.546 7.156 12.886c.002.003.003.006.005.009.344.618.678 1.241 1.002 1.869.097.188.188.379.283.567.205.405.409.81.605 1.219.216.452.424.907.63 1.363.066.147.135.292.201.439.238.536.468 1.076.691 1.618.029.071.06.142.089.213.07.17.133.342.201.512l-24.213 8.064c.036-.718.055-1.44.055-2.166 0-7.331-1.84-14.239-5.074-20.295zm-56.527-1.641c15.568 0 28.233 12.665 28.233 28.233s-12.666 28.233-28.233 28.233-28.233-12.665-28.233-28.233 12.665-28.233 28.233-28.233zm-64.708 16.435c.33-.641.669-1.277 1.019-1.907l7.161-12.894 18.371 6.299c-3.236 6.057-5.077 12.967-5.077 20.301 0 .723.019 1.442.055 2.157l-24.215-8.065c.803-2.005 1.7-3.971 2.686-5.891zm-7.63 31.486c0-3.734.311-7.457.914-11.128l32.859 10.944c7.142 14.064 21.741 23.73 38.565 23.73 16.819 0 31.416-9.661 38.56-23.719l32.86-10.943c.454 2.77.744 5.57.857 8.382h-.887c-3.452 0-6.705 1.517-8.924 4.16-2.219 2.645-3.149 6.111-2.551 9.513l3.654 20.75c.004.026.004.051.009.077l7.181 40.769c.388 2.204.921 4.359 1.58 6.459v146.658h-144.677zm342.404 253.581h-409.478v-12.93h409.479v12.93z"/></svg>