<!-- Generated by IcoMoon.io -->
<svg version="1.1" xmlns="http://www.w3.org/2000/svg" width="1024" height="1024" viewBox="0 0 1024 1024">
<title></title>
<g id="icomoon-ignore">
</g>
<path d="M936 588.749h-4.18v-213.633c0-24.813-20.188-45-45-45h-76.617l-222.156-225.898 44.273-37.148c16.031-13.453 18.133-37.453 4.703-53.5-7.227-8.625-17.836-13.57-29.125-13.57-8.93 0-17.602 3.164-24.398 8.891l-382.844 321.227h-63.477c-24.813 0-45 20.188-45 45v213.633h-4.18c-13.789 0-25 11.211-25 25v29.859c0 13.781 11.211 25 25 25h4.18v330.391c0 13.789 11.211 25 25 25h32.758c13.789 0 25-11.211 25-25v-330.391h29.828c8.281 0 15-6.719 15-15 0-8.289-6.719-15-15-15h-111.766v-19.859h837.992v19.859h-666.234c-8.289 0-15 6.711-15 15 0 8.281 6.711 15 15 15h584.297v330.391c0 13.789 11.219 25 25 25h32.758c13.789 0 25-11.211 25-25v-330.391h4.188c13.789 0 25-11.219 25-25v-29.859c0-13.789-11.211-25-25-25zM536.195 567.78h22.25v20.961h-92.898v-20.961zM804.234 588.741h-92.891v-20.961h92.891zM718.555 537.78h-44.422v-14.617h44.422zM659.094 567.78h22.25v20.961h-92.898v-20.961h22.25zM595.656 537.78h-44.422v-14.617h44.422zM435.547 588.741h-92.891v-20.961h92.891zM349.867 537.78h-44.422v-14.617h44.422zM290.406 567.78h22.25v20.961h-92.898v-20.961zM901.82 375.116v213.625h-19.203v-74.859c0-41.359-33.641-75-75-75h-21.953c-8.289 0-15 6.711-15 15s6.711 15 15 15h21.953c24.813 0 45 20.188 45 45v74.859h-18.383v-25.961c0-13.789-11.211-25-25-25h-60.68v-19.617c0-13.781-11.211-25-25-25h-54.422c-13.789 0-25 11.219-25 25v19.617h-18.477v-19.617c0-13.781-11.211-25-25-25h-54.422c-13.789 0-25 11.219-25 25v19.617h-141.367v-19.617c0-13.781-11.211-25-25-25h-54.422c-13.789 0-25 11.219-25 25v19.617h-60.688c-13.781 0-25 11.211-25 25v25.961h-18.375v-74.859c0-24.813 20.188-45 45-45h509.281c8.289 0 15-6.711 15-15s-6.711-15-15-15h-63.984v-78.766h225.141c8.273 0 15 6.734 15 15zM527 336.124c43.063-23.523 74.898-27.648 104.68-13.664v116.422h-104.68zM497 438.882h-104.68v-116.422c29.781-13.992 61.609-9.875 104.68 13.656zM768.125 330.116h-106.453v-10.758c0-9.461-5.219-18-13.617-22.281-50.281-25.609-98.414-7.75-136.055 13.039-37.648-20.781-85.781-38.648-136.055-13.039-8.406 4.281-13.625 12.82-13.625 22.281v10.758h-43.508l246.18-206.555zM602.805 31.851c1.82-1.531 3.773-1.852 5.094-1.852 2.383 0 4.617 1.031 6.125 2.828 2.828 3.383 2.383 8.43-0.984 11.266-14.984 12.563-325.844 273.398-340.898 286.023h-24.813zM122.18 375.116c0-8.266 6.727-15 15-15h225.141v78.766h-145.938c-41.359 0-75 33.648-75 75v74.859h-19.203zM144.937 668.608v325.391h-22.758v-325.391zM901.82 993.999h-22.758v-325.391h22.758z"></path>
<path d="M551.898 368.741c1.719 0 3.461-0.289 5.156-0.914 17.617-6.453 33.352-8.813 48.125-7.234 8.25 0.898 15.633-5.078 16.516-13.313 0.883-8.242-5.078-15.633-13.32-16.516-19.43-2.078-39.602 0.828-61.633 8.891-7.781 2.852-11.773 11.461-8.93 19.242 2.227 6.078 7.977 9.844 14.086 9.844z"></path>
<path d="M608.375 385.147c-19.438-2.078-39.609 0.82-61.633 8.883-7.781 2.852-11.773 11.469-8.93 19.25 2.227 6.078 7.969 9.844 14.086 9.844 1.719 0 3.461-0.297 5.156-0.922 17.617-6.445 33.352-8.813 48.125-7.227 8.25 0.898 15.633-5.078 16.516-13.32 0.883-8.234-5.078-15.625-13.32-16.508z"></path>
<path d="M415.625 330.765c-8.234 0.883-14.195 8.273-13.313 16.516 0.875 8.234 8.258 14.195 16.508 13.313 14.781-1.578 30.516 0.789 48.125 7.234 1.703 0.625 3.445 0.914 5.156 0.914 6.117 0 11.859-3.766 14.086-9.844 2.852-7.781-1.148-16.391-8.922-19.242-22.031-8.063-42.195-10.977-61.641-8.891z"></path>
<path d="M477.258 394.038c-22.023-8.070-42.188-10.969-61.633-8.891-8.234 0.883-14.195 8.273-13.313 16.508 0.875 8.242 8.258 14.219 16.508 13.32 14.781-1.586 30.516 0.781 48.125 7.234 1.703 0.617 3.445 0.914 5.156 0.914 6.117 0 11.859-3.766 14.086-9.844 2.852-7.781-1.148-16.398-8.93-19.242z"></path>
<path d="M584.219 745.108h-144.438c-27.328 0-49.563 22.227-49.563 49.555v72.023c0 13.789 11.219 25 25 25h81.781v102.313h-25.25c-8.289 0-15 6.711-15 15s6.711 15 15 15h80.5c8.289 0 15-6.711 15-15s-6.711-15-15-15h-25.25v-102.313h81.781c13.781 0 25-11.211 25-25v-72.023c0-27.328-22.234-49.555-49.563-49.555zM420.219 861.687v-18.109h21.531c8.289 0 15-6.719 15-15 0-8.289-6.711-15-15-15h-21.531v-18.914c0-10.781 8.773-19.555 19.563-19.555h144.438c10.789 0 19.555 8.773 19.555 19.555v18.914h-102.023c-8.289 0-15 6.711-15 15 0 8.281 6.711 15 15 15h102.023v18.109z"></path>
</svg>
