<!-- Generated by IcoMoon.io -->
<svg version="1.1" xmlns="http://www.w3.org/2000/svg" width="1024" height="1024" viewBox="0 0 1024 1024">
<title></title>
<g id="icomoon-ignore">
</g>
<path d="M1024 385.102v-71.141c0-19.219-15.641-34.859-34.859-34.859-12.313 0-23.883-4.789-32.586-13.477-8.703-8.719-13.5-20.297-13.5-32.602v-125.266c0-19.508-15.867-35.375-35.375-35.375h-42.664c-19.508 0-35.375 15.875-35.375 35.375v73.32c0 45.484-36.273 83.094-80.852 83.844-22.164 0.344-43.227-8.008-59.070-23.594-15.852-15.594-24.578-36.422-24.578-58.648v-74.922c0-19.508-15.875-35.375-35.383-35.375h-42.656c-19.508 0-35.383 15.875-35.383 35.375v45.203c0 8.289 6.719 15 15 15 8.289 0 15-6.711 15-15v-45.203c0-2.961 2.414-5.375 5.383-5.375h42.656c2.969 0 5.383 2.414 5.383 5.375v74.922c0 30.336 11.914 58.758 33.539 80.031s50.25 32.648 80.609 32.211c60.852-1.031 110.352-52.102 110.352-113.844v-73.32c0-2.961 2.414-5.375 5.375-5.375h42.664c2.961 0 5.375 2.414 5.375 5.375v125.266c0 20.305 7.906 39.414 22.289 53.813 14.383 14.359 33.484 22.266 53.797 22.266 2.68 0 4.859 2.18 4.859 4.859v61.977l-246.617 118.32-246.602-118.313v-61.984c0-1.656 0.773-2.781 1.453-3.461 0.523-0.523 1.656-1.398 3.406-1.398 41.953 0 76.078-34.125 76.078-76.078v-20.063c0-8.281-6.711-15-15-15-8.281 0-15 6.719-15 15v20.063c0 25.406-20.672 46.078-46.078 46.078-9.344 0-18.109 3.633-24.648 10.211-6.586 6.586-10.211 15.344-10.211 24.648v70.906c-0.008 0.336-0.008 0.672 0 1.008v249.242l-77.141 46.234c-10.867-6.234-23.305-9.594-35.922-9.594h-89.5v-259.125h89.5c39.758 0 72.102-32.344 72.102-72.102s-32.344-72.102-72.102-72.102h-15.711v-16.383c0-32.461-26.414-58.867-58.875-58.867h-14.914v-29.398c0-17.094-13.906-31-31-31h-44.617c-17.094 0-31 13.906-31 31v29.398h-14.914c-32.461 0-58.875 26.406-58.875 58.867v16.383h-15.711c-6.586 0-13.109 0.891-19.398 2.641-7.977 2.227-12.648 10.5-10.422 18.484 2.227 7.977 10.492 12.633 18.484 10.414 3.664-1.023 7.477-1.539 11.336-1.539h285.617c23.219 0 42.102 18.883 42.102 42.102 0 23.211-18.883 42.094-42.102 42.094h-285.617c-23.219 0-42.102-18.883-42.102-42.094 0-2.383 0.203-4.781 0.594-7.109 1.383-8.172-4.117-15.914-12.281-17.297-8.164-1.391-15.914 4.117-17.297 12.289-0.672 3.984-1.016 8.063-1.016 12.117 0 39.758 32.344 72.102 72.102 72.102h89.5v259.125h-89.5c-39.758 0-72.102 32.344-72.102 72.102 0 19.234 7.492 37.344 21.125 51 13.633 13.609 31.742 21.102 50.977 21.102h15.719v16.375c0 32.469 26.406 58.883 58.859 58.883h14.922v29.398c0 17.094 13.906 31 31 31h44.617c17.094 0 31-13.906 31-31v-29.398h0.594c3.102 4.070 6.516 7.938 10.242 11.57 20.148 19.68 46.281 29.695 72.914 29.695h540.789c31.578 0 57.273-25.695 57.273-57.281v-88.844h8.008c36.375 0 65.961-29.594 65.961-65.961v-334.781c0-0.172 0-0.344 0-0.516zM191.602 163.781c0-0.547 0.445-1 1-1h44.617c0.555 0 1 0.453 1 1v29.398h-46.617zM117.812 268.43v-16.383c0-15.922 12.953-28.867 28.875-28.867h136.445c15.922 0 28.875 12.945 28.875 28.867v16.383zM629.047 601.242c6.703 0 12.734 4.234 15.023 10.531 17.414 48.047 63.453 80.328 114.547 80.328 52.188 0 98.547-33.195 115.352-82.602 1.68-4.938 6.32-8.258 11.539-8.258h9.32c13.898 0 25.203 11.305 25.203 25.203v188.969h-207.672l-49.203-70.5c-4.734-6.789-14.094-8.453-20.883-3.711-6.789 4.734-8.453 14.086-3.719 20.883l37.219 53.328h-35.992l-92.656-132.789 25.383-15.219 31.727 45.477c2.922 4.18 7.578 6.422 12.32 6.422 2.961 0 5.953-0.875 8.563-2.703 6.797-4.742 8.461-14.094 3.727-20.883l-31.93-45.766c8.484-9.563 13.414-22.078 13.414-35.141v-13.57zM568.242 815.414l-71.563-102.555 24.648-14.773 81.867 117.328zM495.656 815.414l-50.156-71.875 25.383-15.211 60.773 87.094h-36zM356.734 738.446c0.766 1.391 1.641 2.734 2.617 4.008 9.992 13 25.133 19.961 40.547 19.961 6.57 0 13.195-1.266 19.492-3.875l39.688 56.875h-180.43c3.688-21.086 16.422-40.008 35.063-51.172zM580.328 604.446v10.375c0 7.883-4.156 15.297-10.859 19.43-0.266 0.156-0.531 0.313-0.789 0.484l-50.359 30.18c-0.258 0.148-0.516 0.305-0.773 0.469l-49.914 29.914c-0.094 0.055-0.195 0.117-0.289 0.18l-56.625 33.938c-9.195 5.516-21.047 3.258-27.586-5.242-0.078-0.102-0.32-0.422-0.219-0.945 0.086-0.461 0.359-0.672 0.5-0.766l17.18-10.297c0.195-0.109 0.398-0.234 0.594-0.359l178.469-106.977c0.227-0.133 0.445-0.258 0.672-0.383zM191.602 412.633h46.617v259.125h-46.617zM117.82 832.344v-16.383h84.742c8.281 0 15-6.711 15-15 0-8.281-6.719-15-15-15h-130.461c-11.234 0-21.813-4.375-29.766-12.313-7.953-7.977-12.336-18.555-12.336-29.789 0-23.211 18.883-42.102 42.102-42.102h285.617c0.609 0 1.211 0.016 1.813 0.039l-61.242 36.711c-31.297 18.758-50.734 53.070-50.734 89.563 0 9.969 1.406 19.617 4.023 28.75 0.031 0.117 0.070 0.234 0.102 0.352 0.023 0.078 0.047 0.156 0.070 0.234 0.367 1.281 0.766 2.547 1.188 3.813h-106.258c-15.914 0-28.859-12.953-28.859-28.875zM238.219 920.617c0 0.547-0.453 1-1 1h-44.617c-0.547 0-1-0.453-1-1v-29.398h46.617zM920.031 875.203c0 15.047-12.234 27.281-27.281 27.281-346 0-541.172 0.016-542.766-0.023-34.188-0.898-62.703-24.969-70.391-57.047h207.867c0.133 0.008 0.258 0.008 0.391 0.008s0.266 0 0.398-0.008h71.789c0.133 0.008 0.258 0.008 0.391 0.008s0.266 0 0.398-0.008h70.75c0.133 0.008 0.266 0.008 0.391 0.008 0.133 0 0.266 0 0.398-0.008h71.789c0.133 0.008 0.258 0.008 0.391 0.008s0.266 0 0.398-0.008h215.086zM958.039 756.36h-8.008v-129.914c0-30.438-24.766-55.203-55.203-55.203h-9.32c-18.070 0-34.117 11.492-39.945 28.594-12.664 37.242-47.609 62.258-86.945 62.258-38.523 0-73.219-24.328-86.352-60.539-6.57-18.133-23.938-30.313-43.227-30.313-33.438 0.859-46.18-3.281-64.805 7.859l-63.461 38.031v-207.914l240.117 115.203c2.055 0.984 4.273 1.477 6.492 1.477s4.438-0.492 6.484-1.477l240.125-115.211v311.188c0.008 19.828-16.125 35.961-35.953 35.961z"></path>
<path d="M731.742 336.672h-10.078c-8.289 0-15 6.711-15 15 0 8.281 6.711 15 15 15h3.172v51.883h-1.828c-8.289 0-15 6.711-15 15s6.711 15 15 15h33.656c8.289 0 15-6.711 15-15s-6.711-15-15-15h-1.828v-58.789c0-12.734-10.359-23.094-23.094-23.094z"></path>
</svg>
