<!-- Generated by IcoMoon.io -->
<svg version="1.1" xmlns="http://www.w3.org/2000/svg" width="1024" height="1024" viewBox="0 0 1024 1024">
<title></title>
<g id="icomoon-ignore">
</g>
<path d="M432 640.001h32v32h-32z"></path>
<path d="M496 640.001h32v32h-32z"></path>
<path d="M560 640.001h32v32h-32z"></path>
<path d="M432 704.001h32v32h-32z"></path>
<path d="M496 704.001h32v32h-32z"></path>
<path d="M560 704.001h32v32h-32z"></path>
<path d="M432 768.001h32v32h-32z"></path>
<path d="M496 768.001h32v32h-32z"></path>
<path d="M560 768.001h32v32h-32z"></path>
<path d="M432 512.001h32v32h-32z"></path>
<path d="M496 512.001h32v32h-32z"></path>
<path d="M560 512.001h32v32h-32z"></path>
<path d="M432 576.001h32v32h-32z"></path>
<path d="M496 576.001h32v32h-32z"></path>
<path d="M560 576.001h32v32h-32z"></path>
<path d="M355.738 164.881l66.528 64.848-15.706 91.566c-0.147 0.814-0.231 1.75-0.231 2.706 0 8.837 7.163 16 16 16 2.723 0 5.288-0.68 7.532-1.88l-0.086 0.042 82.224-43.232 82.232 43.232c2.159 1.158 4.723 1.838 7.447 1.838 8.837 0 16-7.163 16-16 0-0.956-0.084-1.893-0.245-2.803l0.014 0.096-15.706-91.566 66.536-64.848c2.983-2.909 4.833-6.968 4.833-11.458 0-8.025-5.908-14.671-13.613-15.823l-0.088-0.011-91.938-13.358-41.116-83.312c-2.672-5.327-8.090-8.919-14.348-8.919s-11.676 3.592-14.306 8.827l-0.042 0.092-41.116 83.312-91.944 13.358c-7.792 1.163-13.701 7.809-13.701 15.834 0 4.491 1.85 8.549 4.829 11.455l0.003 0.003zM469.47 154.681c5.315-0.794 9.716-4.106 12.004-8.662l0.042-0.092 30.484-61.772 30.492 61.78c2.33 4.648 6.731 7.96 11.958 8.743l0.088 0.011 68.18 9.906-49.318 48.092c-2.981 2.909-4.83 6.967-4.83 11.456 0 0.956 0.084 1.892 0.245 2.802l-0.014-0.096 11.646 67.904-60.982-32.060c-2.159-1.158-4.723-1.838-7.446-1.838s-5.287 0.68-7.532 1.88l0.086-0.042-60.982 32.060 11.646-67.904c0.147-0.814 0.23-1.75 0.23-2.706 0-4.49-1.849-8.547-4.827-11.453l-0.003-0.003-49.346-48.086z"></path>
<path d="M656.784 292.185c-0.496 1.476-0.783 3.177-0.783 4.944 0 4.49 1.849 8.548 4.828 11.453l0.003 0.003 44.302 43.184-10.458 60.978c-0.147 0.814-0.231 1.75-0.231 2.706 0 8.837 7.163 16 16 16 2.723 0 5.288-0.68 7.532-1.88l-0.086 0.042 54.762-28.79 54.762 28.79c2.158 1.157 4.722 1.837 7.444 1.837 8.837 0 16-7.163 16-16 0-0.956-0.084-1.892-0.244-2.802l0.014 0.096-10.46-60.978 44.304-43.184c2.983-2.909 4.833-6.968 4.833-11.458 0-8.025-5.908-14.671-13.613-15.823l-0.088-0.011-61.224-8.892-27.382-55.482c-2.672-5.326-8.090-8.917-14.347-8.917s-11.675 3.591-14.305 8.825l-0.042 0.092-27.382 55.482-61.224 8.896c-6.095 0.91-11.009 5.148-12.883 10.775l-0.033 0.113zM743.85 302.857c5.316-0.793 9.717-4.104 12.006-8.66l0.042-0.092 16.756-33.952 16.756 33.952c2.331 4.647 6.731 7.958 11.958 8.741l0.088 0.011 37.466 5.444-27.11 26.428c-2.981 2.909-4.83 6.967-4.83 11.456 0 0.956 0.084 1.892 0.245 2.802l-0.014-0.096 6.4 37.316-33.512-17.62c-2.158-1.158-4.722-1.838-7.445-1.838s-5.287 0.68-7.531 1.88l0.086-0.042-33.512 17.62 6.4-37.316c0.147-0.814 0.23-1.75 0.23-2.706 0-4.49-1.849-8.547-4.827-11.453l-0.003-0.003-27.114-26.428z"></path>
<path d="M835.644 466.319c-7.79 1.165-13.697 7.809-13.697 15.833 0 4.49 1.849 8.548 4.828 11.453l0.003 0.003 28.49 27.772-6.726 39.22c-0.147 0.813-0.23 1.75-0.23 2.705 0 8.837 7.163 16 16 16 2.722 0 5.286-0.68 7.53-1.879l-0.086 0.042 35.216-18.514 35.216 18.514c2.158 1.157 4.721 1.836 7.442 1.836 8.837 0 16-7.163 16-16 0-0.955-0.084-1.891-0.244-2.8l0.014 0.096-6.726-39.212 28.494-27.788c2.982-2.909 4.831-6.967 4.831-11.456 0-8.025-5.908-14.669-13.611-15.823l-0.088-0.011-39.372-5.71-17.6-35.678c-2.672-5.327-8.090-8.919-14.348-8.919s-11.676 3.592-14.306 8.827l-0.042 0.092-17.6 35.678zM900 482.303l6.982-14.148 6.984 14.148c2.328 4.644 6.724 7.955 11.946 8.741l0.088 0.011 15.614 2.27-11.298 11.012c-2.982 2.909-4.831 6.967-4.831 11.456 0 0.957 0.084 1.894 0.245 2.804l-0.014-0.096 2.668 15.55-13.966-7.342c-2.158-1.158-4.722-1.838-7.445-1.838s-5.287 0.68-7.531 1.88l0.086-0.042-13.966 7.342 2.666-15.55c0.147-0.814 0.231-1.751 0.231-2.708 0-4.49-1.849-8.547-4.828-11.453l-0.003-0.003-11.296-11.012 15.614-2.27c5.318-0.791 9.722-4.103 12.012-8.66l0.042-0.092z"></path>
<path d="M139.526 308.587l44.304 43.184-10.46 60.978c-0.147 0.813-0.23 1.75-0.23 2.705 0 8.837 7.163 16 16 16 2.722 0 5.286-0.68 7.53-1.879l-0.086 0.042 54.762-28.79 54.762 28.79c2.159 1.158 4.723 1.838 7.447 1.838 8.837 0 16-7.163 16-16 0-0.956-0.084-1.893-0.245-2.803l0.014 0.096-10.458-60.978 44.302-43.184c2.983-2.909 4.833-6.968 4.833-11.458 0-8.025-5.908-14.671-13.613-15.823l-0.088-0.011-61.224-8.894-27.382-55.48c-2.672-5.326-8.090-8.917-14.347-8.917s-11.675 3.591-14.305 8.825l-0.042 0.092-27.382 55.48-61.218 8.894c-7.792 1.163-13.701 7.809-13.701 15.834 0 4.491 1.85 8.549 4.829 11.455l0.003 0.003zM222.544 302.857c5.315-0.794 9.715-4.105 12.004-8.66l0.042-0.092 16.756-33.952 16.756 33.952c2.331 4.648 6.732 7.959 11.96 8.741l0.088 0.011 37.466 5.444-27.11 26.428c-2.981 2.909-4.83 6.967-4.83 11.456 0 0.956 0.084 1.892 0.245 2.802l-0.014-0.096 6.4 37.316-33.512-17.62c-2.159-1.157-4.722-1.836-7.445-1.836s-5.286 0.679-7.531 1.878l0.086-0.042-33.504 17.614 6.4-37.316c0.147-0.814 0.23-1.75 0.23-2.706 0-4.49-1.849-8.547-4.827-11.453l-0.003-0.003-27.122-26.422z"></path>
<path d="M36.832 493.601l28.49 27.78-6.722 39.22c-0.147 0.814-0.231 1.75-0.231 2.706 0 8.837 7.163 16 16 16 2.723 0 5.288-0.68 7.532-1.88l-0.086 0.042 35.216-18.514 35.216 18.514c2.157 1.156 4.719 1.835 7.44 1.835 8.837 0 16-7.163 16-16 0-0.955-0.084-1.89-0.244-2.799l0.014 0.096-6.726-39.22 28.49-27.78c2.982-2.909 4.831-6.967 4.831-11.457 0-8.024-5.907-14.668-13.609-15.823l-0.088-0.011-39.374-5.71-17.6-35.678c-2.672-5.327-8.090-8.919-14.348-8.919s-11.676 3.592-14.306 8.827l-0.042 0.092-17.6 35.678-39.386 5.718c-7.788 1.167-13.692 7.811-13.692 15.833 0 4.486 1.846 8.541 4.821 11.446l0.003 0.003zM98 491.055c5.315-0.794 9.715-4.105 12.004-8.66l0.042-0.092 6.984-14.148 6.982 14.148c2.331 4.647 6.731 7.958 11.958 8.741l0.088 0.011 15.614 2.27-11.296 11.012c-2.982 2.909-4.831 6.967-4.831 11.456 0 0.957 0.084 1.894 0.245 2.804l-0.014-0.096 2.666 15.55-13.966-7.342c-2.158-1.158-4.722-1.838-7.445-1.838s-5.287 0.68-7.531 1.88l0.086-0.042-13.966 7.342 2.668-15.55c0.147-0.814 0.231-1.751 0.231-2.708 0-4.49-1.849-8.547-4.828-11.453l-0.003-0.003-11.298-11.012z"></path>
<path d="M288 576.001h48v32h-48z"></path>
<path d="M288 656.001h48v32h-48z"></path>
<path d="M288 736.001h48v32h-48z"></path>
<path d="M288 816.001h48v32h-48z"></path>
<path d="M928 784.001h-32c-35.33 0.041-63.959 28.67-64 63.996v32.952c-12.161 1.986-22.976 6.608-32.224 13.27l0.224-0.154v-78.064h-32v80h-112v-368h112v256h32v-272c0-8.837-7.163-16-16-16v0h-128v-80c0-8.837-7.163-16-16-16v0h-48v-32c0-8.837-7.163-16-16-16v0h-128c-8.837 0-16 7.163-16 16v0 32h-48c-8.837 0-16 7.163-16 16v0 80h-128c-8.837 0-16 7.163-16 16v0 96h32v-80h112v368h-112v-256h-32v254.064c-9.024-6.508-19.839-11.13-31.562-13.057l-0.438-0.059v-32.948c-0.041-35.33-28.67-63.959-63.996-64h-32.004c-35.33 0.041-63.959 28.67-64 63.996v128.004c0 8.837 7.163 16 16 16v0h928c8.837 0 16-7.163 16-16v0-128c-0.041-35.33-28.67-63.959-63.996-64h-0.004zM464 384.001h96v64h-96zM64 848.001c0.022-17.664 14.336-31.978 31.998-32h32.002c17.664 0.022 31.978 14.336 32 31.998v32.95c-36.472 6.045-63.95 37.332-64 75.047v4.005h-32zM128 960.001v-4c0.028-24.289 19.711-43.972 43.997-44h8.003c24.289 0.028 43.972 19.711 44 43.997v4.003zM256 928.001h112v32h-112zM400 432.001h32v32c0 8.837 7.163 16 16 16v0h128c8.837 0 16-7.163 16-16v0-32h32v528h-48v-112c0-8.837-7.163-16-16-16v0h-96c-8.837 0-16 7.163-16 16v0 112h-48zM480 960.001v-96h64v96zM656 928.001h112v32h-112zM800 960.001v-4c0.028-24.289 19.711-43.972 43.997-44h8.003c24.289 0.028 43.972 19.711 44 43.997v4.003zM960 960.001h-32v-4c-0.050-37.72-27.528-69.007-63.556-74.991l-0.444-0.061v-32.948c0.022-17.664 14.336-31.978 31.998-32h32.002c17.664 0.022 31.978 14.336 32 31.998v0.002z"></path>
<path d="M688 736.001h48v32h-48z"></path>
<path d="M688 816.001h48v32h-48z"></path>
<path d="M688 576.001h48v32h-48z"></path>
<path d="M688 656.001h48v32h-48z"></path>
</svg>
