<!-- Generated by IcoMoon.io -->
<svg version="1.1" xmlns="http://www.w3.org/2000/svg" width="1024" height="1024" viewBox="0 0 1024 1024">
<title></title>
<g id="icomoon-ignore">
</g>
<path d="M512.477 860.289l-179.539-189.797 58.117-54.977 121.266 128.195 120.547-128.117 58.266 54.82zM844 784v-544c0-132.336-107.664-240-240-240h-184c-132.336 0-240 107.664-240 240v544c0 132.336 107.664 240 240 240h184c132.336 0 240-107.664 240-240zM604 80c88.227 0 160 71.773 160 160v544c0 88.227-71.773 160-160 160h-184c-88.227 0-160-71.773-160-160v-544c0-88.227 71.773-160 160-160zM512 162c-22.094 0-40 17.906-40 40s17.906 40 40 40 40-17.906 40-40-17.906-40-40-40zM512 322c-22.094 0-40 17.906-40 40s17.906 40 40 40 40-17.906 40-40-17.906-40-40-40zM512 482c-22.094 0-40 17.906-40 40s17.906 40 40 40 40-17.906 40-40-17.906-40-40-40z"></path>
</svg>
