<!-- Generated by IcoMoon.io -->
<svg version="1.1" xmlns="http://www.w3.org/2000/svg" width="973" height="1024" viewBox="0 0 973 1024">
<title></title>
<g id="icomoon-ignore">
</g>
<path d="M486.604 119.194c63.752-2.456 127.599-0.746 191.128 5.12 30.822-0.388 61.44 5.014 90.266 15.923 39.772 18.532 71.736 50.494 90.266 90.266 10.885 28.901 16.236 59.592 15.77 90.47 0 47.77 5.12 63.693 5.12 191.13 2.458 63.752 0.748 127.599-5.12 191.128 0.389 30.822-5.012 61.44-15.923 90.266-18.529 39.772-50.493 71.736-90.266 90.266-28.826 10.911-59.443 16.312-90.266 15.923-47.77 0-63.693 5.12-191.128 5.12-63.706 2.401-127.5 0.64-190.976-5.274-30.82 0.389-61.438-5.012-90.266-15.923-39.737-18.478-71.695-50.365-90.266-90.061-10.91-28.826-16.311-59.443-15.923-90.266 0-47.77-5.12-63.693-5.12-191.128-2.457-63.753-0.746-127.599 5.12-191.13-0.388-30.82 5.014-61.438 15.923-90.266 9.265-19.707 21.837-37.682 37.171-53.146 12.45-18.571 31.384-31.826 53.094-37.171 28.827-10.91 59.446-16.311 90.266-15.923 63.53-5.866 127.376-7.576 191.13-5.12v-0.205zM486.604 34.254c-65.459-2.392-131.004-0.682-196.25 5.12-39.98-0.046-79.63 7.225-116.992 21.453-32.218 10.51-61.379 28.737-84.941 53.094-24.357 23.562-42.585 52.723-53.094 84.941-16.776 36.604-24.149 76.817-21.453 116.992-5.802 65.246-7.512 130.79-5.12 196.25-2.4 65.529-0.69 131.142 5.12 196.452-0.086 39.9 7.114 79.478 21.248 116.787 10.51 32.22 28.737 61.379 53.094 84.941 23.562 24.361 52.723 42.588 84.941 53.094 37.311 14.136 76.889 21.335 116.787 21.248 65.313 5.811 130.927 7.521 196.454 5.12 65.529 2.401 131.142 0.691 196.452-5.12 39.9 0.087 79.478-7.112 116.787-21.248 32.041-11.013 61.143-29.189 85.094-53.146 23.956-23.951 42.132-53.053 53.146-85.094 14.136-37.309 21.335-76.887 21.248-116.787 0-53.094 5.12-69.018 5.12-196.452 2.401-65.527 0.691-131.141-5.12-196.454 0.087-39.898-7.112-79.476-21.248-116.787-10.506-32.218-28.733-61.379-53.094-84.941-23.567-24.276-52.71-42.431-84.89-52.89-37.309-14.21-76.908-21.48-116.838-21.453-65.311-5.811-130.924-7.521-196.452-5.12zM486.604 267.879c-32.217-0.526-64.211 5.432-94.079 17.519s-57.001 30.057-79.785 52.841c-22.783 22.783-40.754 49.916-52.84 79.785s-18.045 61.862-17.519 94.079c0 48.305 14.324 95.522 41.159 135.683s64.978 71.465 109.604 89.948c44.626 18.488 93.731 23.322 141.105 13.901 47.375-9.426 90.89-32.686 125.046-66.842s57.416-77.67 66.842-125.046c9.421-47.374 4.588-96.479-13.901-141.105-18.483-44.626-49.787-82.768-89.948-109.604s-87.378-41.159-135.683-41.159zM486.604 671.384c-21.023 0.384-41.906-3.476-61.404-11.346s-37.209-19.589-52.077-34.452c-14.868-14.868-26.586-32.579-34.456-52.081-7.87-19.497-11.729-40.381-11.347-61.402-0.382-21.022 3.477-41.906 11.347-61.404s19.588-37.21 34.456-52.077c14.867-14.867 32.579-26.586 52.077-34.456s40.381-11.729 61.404-11.347c21.022-0.382 41.905 3.478 61.402 11.347 19.502 7.869 37.212 19.588 52.081 34.456 14.863 14.867 26.583 32.579 34.452 52.077s11.73 40.381 11.346 61.404c0.384 21.021-3.476 41.905-11.346 61.402-7.869 19.502-19.589 37.212-34.452 52.081-14.868 14.863-32.579 26.583-52.081 34.452-19.497 7.869-40.38 11.73-61.402 11.346zM741.476 198.81c-11.551 0-22.845 3.426-32.456 9.845-9.605 6.419-17.091 15.543-21.514 26.218s-5.581 22.421-3.323 33.753c2.253 11.332 7.818 21.742 15.985 29.912 8.172 8.17 18.58 13.734 29.911 15.988 11.336 2.254 23.081 1.097 33.756-3.324s19.799-11.91 26.214-21.516c6.42-9.607 9.846-20.902 9.846-32.456-0.133-15.452-6.328-30.234-17.254-41.161-10.931-10.927-25.713-17.125-41.165-17.258z"></path>
</svg>
