<!-- Generated by IcoMoon.io -->
<svg version="1.1" xmlns="http://www.w3.org/2000/svg" width="1216" height="1024" viewBox="0 0 1216 1024">
<title></title>
<g id="icomoon-ignore">
</g>
<path d="M389.055 996.252c91.748 0.826 182.742-16.634 267.668-51.36 84.922-34.733 162.080-86.029 226.957-150.912 64.877-64.877 116.179-142.029 150.912-226.957 34.726-84.925 52.186-175.919 51.36-267.668v-33.216c46.374-35.297 86.726-77.875 119.488-126.080-44.512 19.35-91.379 32.736-139.392 39.808 49.357-30.996 86.778-77.777 106.176-132.736-47.955 26.694-99.302 46.779-152.64 59.712-22.451-25.299-50.061-45.495-80.973-59.228s-64.403-20.685-98.227-20.388c-64.806 1.039-126.669 27.244-172.493 73.074-45.832 45.83-72.038 107.69-73.076 172.494-1.59 17.959 0.589 36.052 6.4 53.12-97.658-4.717-193.181-30.25-280.169-74.886s-163.434-107.347-224.215-183.93c-21.848 38.423-33.296 81.88-33.216 126.080 0.876 40.115 10.896 79.501 29.295 115.158s44.694 66.644 76.881 90.602c-39.898-0.824-78.852-12.291-112.832-33.216-0.065 56.841 19.834 111.899 56.224 155.565s86.959 73.164 142.88 83.347c-21.625 5.745-44.044 7.907-66.368 6.4-15.765 1.141-31.595-1.039-46.464-6.4 16.195 49.236 47.207 92.263 88.793 123.194s91.716 48.256 143.527 49.606c-87.24 68.141-194.586 105.472-305.28 106.176-20.12 1.152-40.294-1.005-59.712-6.4 109.826 79.763 242.588 121.696 378.304 119.488z"></path>
</svg>
