<svg id="Capa_1" enable-background="new 0 0 512 512" height="512" viewBox="0 0 512 512" width="512" xmlns="http://www.w3.org/2000/svg"><path d="m335.07 346.448h-150.354c-4.138 0-7.493 3.355-7.493 7.493s3.354 7.493 7.493 7.493h150.354c12.037 0 24.412-8.39 24.773-24.425.268-11.922-7.639-24.359-23.274-25.064-.635-.028-1.273-.043-1.915-.043h-177.106c-23.18 0-42.04 18.859-42.04 42.039s18.859 42.039 42.04 42.039h194.808c4.138 0 7.492-3.355 7.492-7.493s-3.354-7.493-7.492-7.493h-194.808c-14.918 0-27.054-12.136-27.054-27.054 0-14.917 12.136-27.054 27.054-27.054h177.105c.417 0 .833.01 1.243.028 8.733.394 9 8.196 8.965 9.757-.023 1-.489 9.777-9.791 9.777z"/><path d="m483.352 418.487h-9.639c12.106-19.34 18.488-41.562 18.488-64.547 0-67.185-54.658-121.843-121.843-121.843h-47.029c.537-4.503.526-8.996.013-13.396 1.839.179 3.692.277 5.555.277 4.25 0 8.548-.476 12.813-1.462l13.905-3.215c2.919-.675 5.387-2.454 6.949-5.01 1.562-2.557 2.021-5.564 1.29-8.47l-1.325-5.269 4.61-2.874c2.542-1.584 4.3-4.067 4.949-6.991.65-2.924.108-5.918-1.526-8.433l-7.781-11.965c-3.431-5.276-7.645-9.823-12.396-13.587 4.684-3.849 8.812-8.476 12.146-13.814l7.558-12.106c1.586-2.541 2.073-5.544 1.371-8.456s-2.505-5.362-5.077-6.901l-4.662-2.788 1.228-5.294c.676-2.918.163-5.916-1.446-8.443s-4.109-4.26-7.041-4.882l-4.604-.976c-4.045-.858-8.025 1.728-8.883 5.777-.858 4.048 1.728 8.025 5.776 8.883l.696.148-.97 4.181c-1.092 4.7.958 9.523 5.1 12l3.685 2.204-5.442 8.717c-3.508 5.618-8.204 10.167-13.583 13.505-11.054-4.491-23.43-5.552-35.316-2.599-1.153-4.4-2.945-8.615-5.313-12.499 20.327-12.757 30.869-37.577 25.337-61.497l-3.216-13.905c-.675-2.919-2.455-5.387-5.011-6.949-2.557-1.562-5.567-2.021-8.47-1.29l-5.268 1.325-2.874-4.611c-1.585-2.542-4.069-4.3-6.994-4.949-2.924-.649-5.917-.107-8.429 1.526l-11.965 7.78c-5.281 3.434-9.832 7.653-13.597 12.41-3.848-4.685-8.464-8.823-13.804-12.157h.001l-12.107-7.56c-2.542-1.586-5.546-2.071-8.458-1.369-2.912.703-5.363 2.506-6.899 5.077l-2.788 4.662-5.293-1.227c-2.918-.678-5.916-.164-8.444 1.444-2.527 1.609-4.261 4.11-4.882 7.04l-2.959 13.962c-1.304 6.157-1.544 12.353-.844 18.374-6.032-.587-12.221-.237-18.352 1.18l-13.904 3.215c-2.92.674-5.388 2.453-6.95 5.01-1.563 2.557-2.021 5.565-1.291 8.471l1.325 5.268-4.612 2.874c-2.542 1.585-4.299 4.068-4.947 6.992-.65 2.924-.108 5.918 1.526 8.432l7.781 11.964c3.434 5.28 7.649 9.834 12.406 13.599-4.683 3.849-8.82 8.463-12.153 13.801l-7.559 12.106c-1.587 2.541-2.074 5.545-1.371 8.458.702 2.913 2.505 5.363 5.077 6.901l4.662 2.788-1.229 5.294c-.676 2.919-.162 5.918 1.447 8.444 1.61 2.526 4.109 4.26 7.04 4.88l13.962 2.959c3.933.834 7.879 1.236 11.788 1.236 2.216 0 4.417-.137 6.596-.392-.39 4.008-.371 8.085.108 12.169h-39.39c-4.139 0-7.493 3.355-7.493 7.493s3.354 7.493 7.493 7.493h42.487l1.18 5.101c.673 2.919 2.452 5.388 5.008 6.951 2.556 1.564 5.566 2.021 8.473 1.291l5.268-1.325 2.874 4.611c1.585 2.542 4.069 4.3 6.994 4.949.806.179 1.617.267 2.422.267 2.116 0 4.188-.611 6.008-1.794l11.966-7.781c5.277-3.432 9.825-7.647 13.589-12.399 3.848 4.684 8.473 8.814 13.811 12.147l12.106 7.558c1.782 1.113 3.791 1.685 5.837 1.685.872 0 1.751-.104 2.622-.314 2.912-.703 5.363-2.507 6.899-5.077l2.788-4.662 5.292 1.228c2.922.678 5.918.163 8.445-1.445 2.528-1.609 4.261-4.11 4.882-7.041l.837-3.95h49.966c58.922 0 106.858 47.936 106.858 106.858 0 21.415-6.309 42.073-18.245 59.74-1.111 1.645-2.279 3.238-3.472 4.807h-53.907c8.035-5.806 15.037-13.164 20.568-21.837 2.225-3.489 1.201-8.121-2.289-10.346-3.488-2.225-8.121-1.2-10.345 2.289-11.938 18.719-32.299 29.895-54.468 29.895h-217.916c-35.591 0-64.547-28.955-64.547-64.547s28.956-64.547 64.547-64.547h217.916c35.591 0 64.547 28.955 64.547 64.547 0 1.784-.073 3.584-.218 5.35-.338 4.124 2.732 7.741 6.856 8.079 4.129.344 7.742-2.731 8.079-6.856.178-2.171.268-4.383.268-6.573 0-43.854-35.678-79.532-79.532-79.532h-217.916c-43.854 0-79.532 35.678-79.532 79.532s35.678 79.532 79.532 79.532h346.209c7.533 0 13.663 6.129 13.663 13.663s-6.13 13.663-13.663 13.663h-361.508c-58.922 0-106.858-47.936-106.858-106.858 0-56.796 44.381-103.665 101.038-106.703 4.133-.221 7.302-3.751 7.081-7.883-.221-4.133-3.745-7.288-7.883-7.081-64.61 3.466-115.221 56.908-115.221 121.668 0 67.185 54.658 121.844 121.843 121.844h171.78 76.734 112.994c15.797 0 28.648-12.852 28.648-28.648.001-15.797-12.851-28.649-28.647-28.649zm-206.464-360.134 8.615-5.602 2.27 3.642c2.552 4.095 7.411 6.057 12.091 4.88l4.165-1.047 2.315 10.014c4.266 18.447-4.379 37.615-20.678 46.605-3.603-2.996-7.717-5.496-12.289-7.34-4.573-1.845-9.269-2.9-13.942-3.243-5.498-17.784 1.58-37.587 17.453-47.909zm-72.741 12.827 2.131-10.054 4.183.97c4.7 1.089 9.521-.96 11.998-5.1l2.204-3.685 8.717 5.443h.001c5.618 3.507 10.169 8.201 13.506 13.579-4.491 11.055-5.551 23.432-2.601 35.318-4.402 1.154-8.618 2.946-12.503 5.315-6.513-10.376-16.16-18.206-27.24-22.643-1.554-6.133-1.769-12.667-.396-19.143zm-47.969 51.889 3.645-2.272c4.094-2.552 6.053-7.41 4.877-12.09l-1.047-4.165 10.014-2.316c18.454-4.266 37.618 4.38 46.605 20.679-2.996 3.603-5.496 7.717-7.341 12.289-1.845 4.573-2.9 9.269-3.243 13.943-17.778 5.497-37.584-1.58-47.907-17.454zm37.589 80.931c-6.14 1.561-12.676 1.799-19.16.425l-10.053-2.131.972-4.185c1.089-4.699-.961-9.52-5.101-11.996l-3.686-2.204 5.443-8.718c3.511-5.622 8.21-10.174 13.594-13.513 6.878 2.793 14.261 4.282 21.727 4.282 4.532 0 9.09-.555 13.578-1.669 1.153 4.398 2.944 8.61 5.31 12.492-10.366 6.508-18.188 16.148-22.624 27.217zm41.346 42.79-8.616 5.603-2.27-3.643c-2.058-3.303-5.616-5.217-9.372-5.217-.901 0-1.814.11-2.719.338l-4.165 1.047-2.315-10.013c-4.266-18.447 4.38-37.617 20.678-46.606 3.603 2.996 7.717 5.496 12.289 7.34 4.573 1.845 9.268 2.894 13.941 3.237 5.501 17.787-1.575 37.59-17.451 47.914zm9.117-65.046c-16.086-6.49-23.892-24.857-17.403-40.942 4.94-12.242 16.756-19.688 29.213-19.688 3.91 0 7.887.735 11.73 2.285 16.086 6.49 23.892 24.857 17.403 40.942-6.491 16.085-24.859 23.893-40.943 17.403zm63.623 52.219-2.131 10.055-4.184-.971c-4.704-1.093-9.521.96-11.998 5.1l-2.204 3.685-8.717-5.443c-5.617-3.507-10.171-8.198-13.509-13.575 4.492-11.055 5.552-23.432 2.601-35.321 4.402-1.154 8.619-2.945 12.504-5.314 6.513 10.378 16.159 18.212 27.239 22.648 1.557 6.13 1.772 12.661.399 19.136zm-16.122-51.722c2.996-3.603 5.493-7.721 7.338-12.293s2.9-9.269 3.243-13.942c17.782-5.499 37.584 1.579 47.907 17.453l5.603 8.616-3.645 2.272c-4.094 2.552-6.053 7.41-4.877 12.09l1.047 4.165-10.013 2.315c-18.443 4.262-37.613-4.379-46.603-20.676z"/></svg>